<svg width="25" height="24" viewBox="0 0 25 24" fill="none" xmlns="http://www.w3.org/2000/svg">
<path d="M9.5 10.75C7.98 10.75 6.75 9.52 6.75 8C6.75 6.48 7.98 5.25 9.5 5.25C11.02 5.25 12.25 6.48 12.25 8C12.25 9.52 11.02 10.75 9.5 10.75ZM9.5 6.75C8.81 6.75 8.25 7.31 8.25 8C8.25 8.69 8.81 9.25 9.5 9.25C10.19 9.25 10.75 8.69 10.75 8C10.75 7.31 10.19 6.75 9.5 6.75Z" fill="#292D32"/>
<path d="M15.5 22.75H9.5C4.07 22.75 1.75 20.43 1.75 15V9C1.75 3.57 4.07 1.25 9.5 1.25H13.5C13.91 1.25 14.25 1.59 14.25 2C14.25 2.41 13.91 2.75 13.5 2.75H9.5C4.89 2.75 3.25 4.39 3.25 9V15C3.25 19.61 4.89 21.25 9.5 21.25H15.5C20.11 21.25 21.75 19.61 21.75 15V10C21.75 9.59 22.09 9.25 22.5 9.25C22.91 9.25 23.25 9.59 23.25 10V15C23.25 20.43 20.93 22.75 15.5 22.75Z" fill="#292D32"/>
<path d="M18.5 8.74994C18.09 8.74994 17.75 8.40994 17.75 7.99994V1.99994C17.75 1.69994 17.93 1.41994 18.21 1.30994C18.49 1.19994 18.81 1.25994 19.03 1.46994L21.03 3.46994C21.32 3.75994 21.32 4.23994 21.03 4.52994C20.74 4.81994 20.26 4.81994 19.97 4.52994L19.25 3.80994V7.99994C19.25 8.40994 18.91 8.74994 18.5 8.74994Z" fill="#292D32"/>
<path d="M16.4999 4.74994C16.3099 4.74994 16.1199 4.67994 15.9699 4.52994C15.6799 4.23994 15.6799 3.75994 15.9699 3.46994L17.9699 1.46994C18.2599 1.17994 18.7399 1.17994 19.0299 1.46994C19.3199 1.75994 19.3199 2.23994 19.0299 2.52994L17.0299 4.52994C16.8799 4.67994 16.6899 4.74994 16.4999 4.74994Z" fill="#292D32"/>
<path d="M3.17005 19.7001C2.93005 19.7001 2.69005 19.5801 2.55005 19.3701C2.32005 19.0301 2.41005 18.5601 2.75005 18.3301L7.68005 15.0201C8.76005 14.3001 10.25 14.3801 11.23 15.2101L11.56 15.5001C12.06 15.9301 12.91 15.9301 13.4 15.5001L17.56 11.9301C18.62 11.0201 20.2901 11.0201 21.3601 11.9301L22.99 13.3301C23.3 13.6001 23.34 14.0701 23.07 14.3901C22.8 14.7001 22.32 14.7401 22.01 14.4701L20.38 13.0701C19.88 12.6401 19.0401 12.6401 18.5401 13.0701L14.38 16.6401C13.32 17.5501 11.65 17.5501 10.58 16.6401L10.25 16.3501C9.79005 15.9601 9.03005 15.9201 8.52005 16.2701L3.60005 19.5801C3.46005 19.6601 3.31005 19.7001 3.17005 19.7001Z" fill="#292D32"/>
</svg>
