<svg width="16" height="16" viewBox="0 0 16 16" fill="none" xmlns="http://www.w3.org/2000/svg">
<path d="M8.00004 9.44679C6.58004 9.44679 5.42004 8.29346 5.42004 6.86679C5.42004 5.44012 6.58004 4.29346 8.00004 4.29346C9.42004 4.29346 10.58 5.44679 10.58 6.87346C10.58 8.30012 9.42004 9.44679 8.00004 9.44679ZM8.00004 5.29346C7.13338 5.29346 6.42004 6.00012 6.42004 6.87346C6.42004 7.74679 7.12671 8.45346 8.00004 8.45346C8.87338 8.45346 9.58004 7.74679 9.58004 6.87346C9.58004 6.00012 8.86671 5.29346 8.00004 5.29346Z" fill="#292D32"/>
<path d="M8 15.8335C7.01333 15.8335 6.01999 15.443 5.24666 14.6689C3.28 12.6884 1.10666 9.52945 1.92666 5.77073C2.66666 2.36069 5.51333 0.833496 8 0.833496C8 0.833496 8 0.833496 8.00666 0.833496C10.4933 0.833496 13.34 2.36069 14.08 5.77771C14.8933 9.53643 12.72 12.6884 10.7533 14.6689C9.97999 15.443 8.98666 15.8335 8 15.8335ZM8 1.87952C6.06 1.87952 3.56666 2.96041 2.90666 6.00086C2.18666 9.28538 4.16 12.1166 5.94666 13.9088C7.1 15.0734 8.90666 15.0734 10.06 13.9088C11.84 12.1166 13.8133 9.28538 13.1067 6.00086C12.44 2.96041 9.93999 1.87952 8 1.87952Z" fill="#00764F"/>
</svg>
