<svg width="15" height="15" viewBox="0 0 15 15" fill="none" xmlns="http://www.w3.org/2000/svg">
<path d="M10.9 9.60615C10.7813 9.60615 10.6625 9.5624 10.5688 9.46865C10.3875 9.2874 10.3875 8.9874 10.5688 8.80615L11.8375 7.5374L10.5688 6.26865C10.3875 6.0874 10.3875 5.7874 10.5688 5.60615C10.75 5.4249 11.05 5.4249 11.2313 5.60615L12.8313 7.20615C13.0125 7.3874 13.0125 7.6874 12.8313 7.86865L11.2313 9.46865C11.1375 9.5624 11.0188 9.60615 10.9 9.60615Z" fill="#00764F"/>
<path d="M12.4562 8.00635H6.09998C5.84373 8.00635 5.63123 7.79385 5.63123 7.5376C5.63123 7.28135 5.84373 7.06885 6.09998 7.06885H12.4562C12.7125 7.06885 12.925 7.28135 12.925 7.5376C12.925 7.79385 12.7125 8.00635 12.4562 8.00635Z" fill="#00764F"/>
<path d="M7.34998 12.9688C4.13123 12.9688 1.88123 10.7188 1.88123 7.5C1.88123 4.28125 4.13123 2.03125 7.34998 2.03125C7.60623 2.03125 7.81873 2.24375 7.81873 2.5C7.81873 2.75625 7.60623 2.96875 7.34998 2.96875C4.68123 2.96875 2.81873 4.83125 2.81873 7.5C2.81873 10.1687 4.68123 12.0312 7.34998 12.0312C7.60623 12.0312 7.81873 12.2437 7.81873 12.5C7.81873 12.7563 7.60623 12.9688 7.34998 12.9688Z" fill="#00764F"/>
</svg>
